<svg width="6" height="12" viewBox="0 0 6 12" fill="none" xmlns="http://www.w3.org/2000/svg">
<path fill-rule="evenodd" clip-rule="evenodd" d="M5.72487 0.838101C5.76271 0.875838 5.79272 0.920669 5.8132 0.970024C5.83368 1.01938 5.84423 1.07229 5.84423 1.12573C5.84423 1.17916 5.83368 1.23207 5.8132 1.28143C5.79272 1.33078 5.76271 1.37561 5.72487 1.41335L1.13669 6.00073L5.72487 10.5881C5.80116 10.6644 5.84401 10.7678 5.84401 10.8757C5.84401 10.9836 5.80116 11.0871 5.72487 11.1634C5.64859 11.2396 5.54513 11.2825 5.43725 11.2825C5.32937 11.2825 5.22591 11.2396 5.14962 11.1634L0.274624 6.28835C0.236792 6.25061 0.206776 6.20578 0.186295 6.15643C0.165815 6.10707 0.155273 6.05416 0.155273 6.00073C0.155273 5.94729 0.165815 5.89438 0.186295 5.84502C0.206776 5.79567 0.236792 5.75084 0.274624 5.7131L5.14962 0.838101C5.18736 0.800269 5.23219 0.770253 5.28155 0.749772C5.3309 0.729292 5.38381 0.71875 5.43725 0.71875C5.49069 0.71875 5.5436 0.729292 5.59295 0.749772C5.64231 0.770253 5.68714 0.800269 5.72487 0.838101Z" fill="#005FB0"/>
</svg>
