<svg width="6" height="12" viewBox="0 0 6 12" fill="none" xmlns="http://www.w3.org/2000/svg">
<path fill-rule="evenodd" clip-rule="evenodd" d="M0.274624 0.838101C0.312362 0.800269 0.357192 0.770253 0.406547 0.749772C0.455903 0.729292 0.508814 0.71875 0.56225 0.71875C0.615685 0.71875 0.668597 0.729292 0.717952 0.749772C0.767307 0.770253 0.812137 0.800269 0.849875 0.838101L5.72487 5.7131C5.76271 5.75084 5.79272 5.79567 5.8132 5.84502C5.83368 5.89438 5.84423 5.94729 5.84423 6.00073C5.84423 6.05416 5.83368 6.10707 5.8132 6.15643C5.79272 6.20578 5.76271 6.25061 5.72487 6.28835L0.849875 11.1634C0.773592 11.2396 0.67013 11.2825 0.56225 11.2825C0.454369 11.2825 0.350907 11.2396 0.274624 11.1634C0.198342 11.0871 0.155486 10.9836 0.155486 10.8757C0.155486 10.7678 0.198342 10.6644 0.274624 10.5881L4.86281 6.00073L0.274624 1.41335C0.236792 1.37561 0.206776 1.33078 0.186295 1.28143C0.165815 1.23207 0.155273 1.17916 0.155273 1.12573C0.155273 1.07229 0.165815 1.01938 0.186295 0.970024C0.206776 0.920669 0.236792 0.875838 0.274624 0.838101Z" fill="#005FB0"/>
</svg>
